<svg xmlns="http://www.w3.org/2000/svg" width="100" height="100" viewBox="0 0 100 100"><path fill="#fff" d="M73.21 56.56h-1.97v-.75a7.845 7.845 0 0 0 1.97-5.16v-7.89c0-1.95-.74-3.82-2.05-5.26-.66-10.87-9.41-18.4-21.6-18.4s-20.94 7.53-21.6 18.4a7.773 7.773 0 0 0-2.05 5.26v7.89c0 1.9.71 3.74 1.97 5.16v.75h-1.97c-3.66 0-7.17 1.46-9.75 4.05a13.826 13.826 0 0 0-4.05 9.75v3.94c0 .52.21 1.02.58 1.39.37.37.87.58 1.39.58h3.94c2.76 0 5.46-.84 7.75-2.39a13.88 13.88 0 0 0 5.07-6.33c1.29 1.67 2.94 3.03 4.83 3.98 1.92.95 3.94 1.69 6.01 2.22v2.52h-7.89c-9.87 0-15.77 7.37-15.77 19.71 0 .52.21 1.02.58 1.39.37.37.87.58 1.39.58h59.14c.52 0 1.02-.21 1.39-.58s.58-.87.58-1.39c0-12.35-5.9-19.71-15.77-19.71h-7.89v-2.52a29.79 29.79 0 0 0 6-2.21c1.89-.95 3.54-2.31 4.83-3.98 1.02 2.57 2.79 4.77 5.07 6.32s4.98 2.39 7.75 2.39h3.94c.52 0 1.02-.21 1.39-.58.37-.37.58-.87.58-1.39v-3.94c0-3.66-1.46-7.17-4.05-9.75a13.826 13.826 0 0 0-9.75-4.05Zm-45.34 5.91c0 2.61-1.04 5.12-2.89 6.97a9.846 9.846 0 0 1-6.97 2.89h-1.97v-1.97c0-2.61 1.04-5.12 2.89-6.97a9.846 9.846 0 0 1 6.97-2.89h1.97v1.97Zm21.68-39.43c8.89 0 15.56 4.78 17.28 11.98-.35-.06-.71-.1-1.07-.11-5.41-1.64-10.3-4.47-10.3-5.96 0-1.09-.88-1.97-1.97-1.97s-1.97.88-1.97 1.97c0 1.26-5.37 4.16-12.09 5.91h-5.65c-.51 0-1.01.05-1.51.15 1.72-7.2 8.39-11.98 17.28-11.98Zm6.37 11.83h-5.38c1.02-.56 1.98-1.22 2.85-1.99.76.75 1.61 1.42 2.53 1.99Zm9.41 45.34c9.21 0 11.41 7.92 11.77 13.8H22.01c.36-5.88 2.56-13.8 11.77-13.8h8.17a7.851 7.851 0 0 0 10.95 5.16c2.12-1 3.68-2.89 4.26-5.16h8.17Zm-19.71-1.97v-3.72c2.62.36 5.27.36 7.89 0v3.72c0 1.41-.75 2.71-1.97 3.41-1.22.7-2.72.7-3.94 0s-1.97-2.01-1.97-3.41Zm21.69-19.32c0 1.89-.52 3.74-1.51 5.34-.99 1.6-2.41 2.9-4.11 3.74-7.64 3.8-16.61 3.8-24.25 0a10.105 10.105 0 0 1-5.62-9.08v-.67c.64.18 1.31.27 1.97.27h31.54c.67 0 1.33-.1 1.97-.28v.67Zm1.97-8.28c0 1.05-.42 2.05-1.15 2.79s-1.74 1.15-2.79 1.15H33.8c-1.05 0-2.05-.42-2.79-1.15a3.934 3.934 0 0 1-1.15-2.79v-7.89c0-1.14.51-2.23 1.38-2.97.71-.62 1.62-.97 2.56-.98h31.54c.93 0 1.83.34 2.54.95.89.74 1.4 1.83 1.41 2.99v7.89Zm13.8 21.69h-1.97c-2.61 0-5.12-1.04-6.97-2.89a9.846 9.846 0 0 1-2.89-6.97V60.5h1.97c2.61 0 5.12 1.04 6.97 2.89a9.846 9.846 0 0 1 2.89 6.97v1.97ZM62.91 12.28a1.755 1.755 0 0 0 2.31-.89l2.85-6.45c.39-.88 0-1.92-.89-2.31-.89-.39-1.92 0-2.31.89l-2.85 6.45c-.39.88 0 1.92.89 2.31ZM88.66 19.99a1.756 1.756 0 0 0-2.34-.82l-6.05 2.92c-.87.42-1.24 1.47-.82 2.34.3.62.93.99 1.58.99.25 0 .51-.06.76-.17l6.05-2.92c.87-.42 1.24-1.47.82-2.34ZM38.96 9.95a1.758 1.758 0 0 0 2.15 1.22c.93-.26 1.47-1.23 1.21-2.16l-2.09-7.46A1.752 1.752 0 0 0 38.07.34c-.93.26-1.47 1.23-1.21 2.16l2.09 7.46ZM20.23 22.75c.34.34.78.5 1.23.5s.9-.17 1.25-.52c.68-.69.67-1.8-.02-2.47l-4.53-4.46c-.69-.68-1.8-.67-2.48.02-.68.69-.67 1.8.02 2.47l4.53 4.46Z"/><path fill="#fff" d="M61.83 42.31c-.76-.59-1.86-.45-2.46.31l-4.75 6.12c-.59.76-.45 1.86.31 2.46a1.738 1.738 0 0 0 2.45-.31l4.75-6.12c.59-.76.45-1.86-.31-2.46Z"/></svg>