<svg version="1.1" xmlns="http://www.w3.org/2000/svg" x="0" y="0" viewBox="0 0 273 223" xml:space="preserve"><style>.st0{fill:#65c3ae}</style><path class="st0" d="M272.6 103.2h-11.8c0 59.3-55.8 107.6-124.4 107.6S12.1 162.6 12.1 103.2H.4c0 65.8 61.1 119.4 136.1 119.4s136.1-53.5 136.1-119.4z"/><circle id="Ellipse_48" cx="136.5" cy="84.1" r="83.7" fill="#efefef"/><path class="st0" d="M272.6 103.6h-11.8c0 59.3-55.8 107.6-124.4 107.6C67.8 211.2 12 162.9 12 103.6H.4c0 65.8 61 119.4 136.1 119.4s136.1-53.6 136.1-119.4zM140.4 76.7c0-1.3-.3-2.4-1-3.1-.6-.8-1.6-1.1-3-1.1-2.8 0-4.3 1.9-4.5 5.7h-5.8c.2-3.5 1.2-6.2 3.2-8.1 2-1.8 4.5-2.7 7.5-2.7 3.1 0 5.5.8 7.1 2.4 1.7 1.6 2.5 3.7 2.5 6.4 0 2.1-.6 4.2-1.9 6.3-1.2 2.1-2.8 4.1-4.7 5.8-1.9 1.8-3.9 3.3-6 4.6h13.1v4.9h-21.1v-4.5c9.7-6.7 14.6-12.2 14.6-16.6z"/></svg>