<svg xmlns="http://www.w3.org/2000/svg" viewBox="0 0 302 302.13"><defs><style>.cls-3{fill:#3c3998}</style></defs><path fill="#fff" d="M.28.11h302.33v303.64H.28z"/><path class="cls-3" d="M133.53 1.11v13c-65.54 0-118.86 61.62-118.86 137.36s53.32 137.36 118.86 137.36v13c-72.71 0-131.86-67.45-131.86-150.36S60.82 1.11 133.53 1.11Z"/><circle id="Ellipse_48" cx="151" cy="151.47" r="92.5" fill="#efefef"/><path class="cls-3" d="M156.24 136.19c1.61.78 2.84 1.87 3.67 3.24.83 1.38 1.25 2.91 1.25 4.61 0 2.13-.58 3.88-1.74 5.24-1.16 1.36-2.7 2.2-4.61 2.51v.24c4.64 1.38 6.96 4.1 6.96 8.18 0 2.85-.96 5.16-2.87 6.93-1.91 1.77-4.61 2.66-8.08 2.66-3.7 0-6.64-.92-8.84-2.75-2.19-1.83-3.42-4.6-3.67-8.29h6.49c.16 1.69.71 3.03 1.67 4.02.96.99 2.31 1.48 4.07 1.48 1.5 0 2.68-.42 3.52-1.25.85-.83 1.27-1.92 1.27-3.27 0-1.6-.61-2.82-1.83-3.67-1.22-.85-3.02-1.27-5.41-1.27h-1.36v-5.41h1.36c4.39.06 6.58-1.46 6.58-4.56 0-1.35-.39-2.4-1.17-3.17-.78-.77-1.85-1.15-3.2-1.15s-2.57.45-3.48 1.34c-.91.89-1.43 2.14-1.55 3.74h-6.49c.19-3.38 1.28-5.99 3.29-7.83 2-1.83 4.79-2.75 8.37-2.75 2.26 0 4.19.39 5.8 1.17Z" style="isolation:isolate"/></svg>