<svg version="1.1" xmlns="http://www.w3.org/2000/svg" x="0" y="0" viewBox="0 0 302 302.1" xml:space="preserve"><style>.st0{fill:#65c3ae}</style><path class="st0" d="M167.8 1.1v13c65.5 0 118.9 61.6 118.9 137.4s-53.3 137.4-118.9 137.4v13c72.7 0 131.9-67.4 131.9-150.4S240.5 1.1 167.8 1.1z"/><circle id="Ellipse_48" cx="151" cy="151.5" r="92.5" fill="#efefef"/><path class="st0" d="M156.4 145c0-1.5-.4-2.6-1.1-3.5-.7-.8-1.8-1.3-3.3-1.3-3.1 0-4.7 2.1-4.9 6.3h-6.4c.2-3.9 1.4-6.9 3.6-8.9s5-3 8.3-3c3.4 0 6 .9 7.9 2.7 1.8 1.8 2.7 4.1 2.7 7.1 0 2.3-.7 4.6-2 7-1.4 2.3-3.1 4.5-5.2 6.4-2.1 2-4.3 3.6-6.6 5.1h14.5v5.4h-23.4v-4.9c10.5-7.4 15.9-13.5 15.9-18.4z"/></svg>