<svg version="1.1" xmlns="http://www.w3.org/2000/svg" x="0" y="0" viewBox="0 0 273 223" xml:space="preserve"><style>.st0{fill:#f17358}</style><path class="st0" d="M272.6 103.2h-11.8c0 59.3-55.8 107.6-124.4 107.6S12.1 162.6 12.1 103.2H.4c0 65.8 61.1 119.4 136.1 119.4s136.1-53.5 136.1-119.4z"/><circle id="Ellipse_48" cx="136.5" cy="84.1" r="83.7" fill="#efefef"/><path class="st0" d="M272.6 103.6h-11.8c0 59.3-55.8 107.6-124.4 107.6C67.8 211.2 12 162.9 12 103.6H.4c0 65.8 61 119.4 136.1 119.4s136.1-53.6 136.1-119.4zM120.3 92v-5.5l15.9-21.4h7.1v21.1h4.3V92h-4.3v6.7h-6.7V92h-16.3zm16.8-19.1L127 86.3h10.1V72.9z"/></svg>