<svg version="1.1" xmlns="http://www.w3.org/2000/svg" x="0" y="0" viewBox="0 0 273 223" xml:space="preserve"><style>.st1{fill:#3c3998}</style><path fill="#fff" d="M.5.3h272.4v222.2H.5z"/><path class="st1" d="M.4 119.8h11.8C12.2 60.5 68 12.2 136.6 12.2S261 60.5 261 119.8h11.8C272.6 54 211.6.4 136.5.4S.4 54 .4 119.8z"/><circle id="Ellipse_48" cx="136.5" cy="138.9" r="83.7" fill="#efefef"/><path class="st1" d="M.4 120.1h11.8C12.2 60.8 68 12.5 136.6 12.5c68.6 0 124.4 48.3 124.4 107.6h11.8C272.8 54.3 211.7.7 136.7.7S.4 54.3.4 120.1zM143.6 123.2c1.6.8 2.8 1.9 3.7 3.2.8 1.4 1.2 2.9 1.2 4.6 0 2.1-.6 3.9-1.7 5.2-1.2 1.4-2.7 2.2-4.6 2.5v.2c4.6 1.4 7 4.1 7 8.2 0 2.9-1 5.2-2.9 6.9-1.9 1.8-4.6 2.7-8.1 2.7-3.7 0-6.6-.9-8.8-2.8-2.2-1.8-3.4-4.6-3.7-8.3h6.5c.2 1.7.7 3 1.7 4s2.3 1.5 4.1 1.5c1.5 0 2.7-.4 3.5-1.2.8-.8 1.3-1.9 1.3-3.3 0-1.6-.6-2.8-1.8-3.7-1.2-.8-3-1.3-5.4-1.3H134v-5.4h1.4c4.4.1 6.6-1.5 6.6-4.6 0-1.3-.4-2.4-1.2-3.2-.8-.8-1.8-1.2-3.2-1.2-1.4 0-2.6.4-3.5 1.3-.9.9-1.4 2.1-1.6 3.7H126c.2-3.4 1.3-6 3.3-7.8 2-1.8 4.8-2.8 8.4-2.8 2.3.4 4.2.8 5.9 1.6z"/></svg>